REM DIRINDEX 1\2\6,1\2\7,1\2\8,1\2\9,1\3\10,1\3\11,1\4\12,1\4\13,1\4\14,1\5\15,1\5\16,1\5\17
REM DIRNAME cjc020,folder01,folder02,folder03,folder04,folder05,folder06,folder07,folder08,folder09,folder10,folder11,folder12,folder13,folder14,folder15,folder16
TITLE ""
FILE "1900_2_sec02_0132_0145.mp3" MP3
  TRACK 01 AUDIO
    TITLE "0:"
    INDEX 01 00:00:00
  TRACK 02 AUDIO
    TITLE "13:cjc020_2352"
    INDEX 01 00:00:21
  TRACK 03 AUDIO
    TITLE "0:"
    INDEX 01 00:01:32
  TRACK 04 AUDIO
    TITLE "14:cjc020_2353"
    INDEX 01 00:01:38
  TRACK 05 AUDIO
    TITLE "0:"
    INDEX 01 00:03:59
  TRACK 06 AUDIO
    TITLE "13:cjc020_2354"
    INDEX 01 00:04:38
  TRACK 07 AUDIO
    TITLE "0:"
    INDEX 01 00:05:52
  TRACK 08 AUDIO
    TITLE "14:cjc020_2355"
    INDEX 01 00:05:57
  TRACK 09 AUDIO
    TITLE "0:"
    INDEX 01 00:07:09
  TRACK 10 AUDIO
    TITLE "13:cjc020_2356"
    INDEX 01 00:07:66
  TRACK 11 AUDIO
    TITLE "0:"
    INDEX 01 00:09:14
  TRACK 12 AUDIO
    TITLE "14:cjc020_2357"
    INDEX 01 00:09:16
  TRACK 13 AUDIO
    TITLE "0:"
    INDEX 01 00:13:06
  TRACK 14 AUDIO
    TITLE "13:cjc020_2358"
    INDEX 01 00:13:59
  TRACK 15 AUDIO
    TITLE "0:"
    INDEX 01 00:15:09
  TRACK 16 AUDIO
    TITLE "14:cjc020_2359"
    INDEX 01 00:15:13
  TRACK 17 AUDIO
    TITLE "0:"
    INDEX 01 00:17:59
  TRACK 18 AUDIO
    TITLE "13:cjc020_2360"
    INDEX 01 00:18:39
  TRACK 19 AUDIO
    TITLE "0:"
    INDEX 01 00:19:48
  TRACK 20 AUDIO
    TITLE "14:cjc020_2361"
    INDEX 01 00:19:52
  TRACK 21 AUDIO
    TITLE "0:"
    INDEX 01 00:22:19
  TRACK 22 AUDIO
    TITLE "13:cjc020_2362"
    INDEX 01 00:22:74
  TRACK 23 AUDIO
    TITLE "0:"
    INDEX 01 00:24:12
  TRACK 24 AUDIO
    TITLE "14:cjc020_2363"
    INDEX 01 00:24:18
  TRACK 25 AUDIO
    TITLE "0:"
    INDEX 01 00:28:21
  TRACK 26 AUDIO
    TITLE "13:cjc020_2364"
    INDEX 01 00:28:74
  TRACK 27 AUDIO
    TITLE "0:"
    INDEX 01 00:30:22
  TRACK 28 AUDIO
    TITLE "14:cjc020_2365"
    INDEX 01 00:30:24
  TRACK 29 AUDIO
    TITLE "0:"
    INDEX 01 00:35:33
  TRACK 30 AUDIO
    TITLE "13:cjc020_2366"
    INDEX 01 00:36:11
  TRACK 31 AUDIO
    TITLE "0:"
    INDEX 01 00:37:34
  TRACK 32 AUDIO
    TITLE "14:cjc020_2367"
    INDEX 01 00:37:42
  TRACK 33 AUDIO
    TITLE "0:"
    INDEX 01 00:40:30
  TRACK 34 AUDIO
    TITLE "13:cjc020_2368"
    INDEX 01 00:41:10
  TRACK 35 AUDIO
    TITLE "0:"
    INDEX 01 00:42:14
  TRACK 36 AUDIO
    TITLE "14:cjc020_2369"
    INDEX 01 00:42:19
  TRACK 37 AUDIO
    TITLE "0:"
    INDEX 01 00:43:39
  TRACK 38 AUDIO
    TITLE "12:cjc020_2370"
    INDEX 01 00:45:12
  TRACK 39 AUDIO
    TITLE "0:"
    INDEX 01 00:46:33
  TRACK 40 AUDIO
    TITLE "13:cjc020_2371"
    INDEX 01 00:47:34
  TRACK 41 AUDIO
    TITLE "0:"
    INDEX 01 00:48:69
  TRACK 42 AUDIO
    TITLE "14:cjc020_2372"
    INDEX 01 00:48:73
  TRACK 43 AUDIO
    TITLE "0:"
    INDEX 01 00:53:06
  TRACK 44 AUDIO
    TITLE "13:cjc020_2373"
    INDEX 01 00:53:60
  TRACK 45 AUDIO
    TITLE "0:"
    INDEX 01 00:55:08
  TRACK 46 AUDIO
    TITLE "14:cjc020_2374"
    INDEX 01 00:55:12
  TRACK 47 AUDIO
    TITLE "0:"
    INDEX 01 00:58:34
  TRACK 48 AUDIO
    TITLE "13:cjc020_2375"
    INDEX 01 00:59:12
  TRACK 49 AUDIO
    TITLE "0:"
    INDEX 01 01:00:33
  TRACK 50 AUDIO
    TITLE "14:cjc020_2376"
    INDEX 01 01:00:35
  TRACK 51 AUDIO
    TITLE "0:"
    INDEX 01 01:03:53
  TRACK 52 AUDIO
    TITLE "13:cjc020_2377"
    INDEX 01 01:04:35
  TRACK 53 AUDIO
    TITLE "0:"
    INDEX 01 01:05:48
  TRACK 54 AUDIO
    TITLE "14:cjc020_2378"
    INDEX 01 01:05:54
  TRACK 55 AUDIO
    TITLE "0:"
    INDEX 01 01:09:05
  TRACK 56 AUDIO
    TITLE "13:cjc020_2379"
    INDEX 01 01:09:59
  TRACK 57 AUDIO
    TITLE "0:"
    INDEX 01 01:11:05
  TRACK 58 AUDIO
    TITLE "14:cjc020_2380"
    INDEX 01 01:11:09
  TRACK 59 AUDIO
    TITLE "0:"
    INDEX 01 01:13:28
